# xmcd
#
# Track frame offsets: 
#        182
#        23725
#        45215
#        59805
#        74187
#        94875
#        115047
#        129960
#        153672
#        167992
#        187935
#        203200
#        222860
#        240052
#        259842
#        277922
#
# Disc length: 4070 seconds
#
# Revision: 1
# Processed by: cddbd v1.5.2PL0 Copyright (c) Steve Scherf et al.
# Submitted via: ExactAudioCopy v0.99pb4
#
DISCID=e00fe410
DTITLE=Various Artist - Grooves - The Year In Review
DYEAR=1994
DGENRE=Rock
TTITLE0=John Hiatt - Buffalo River Home
TTITLE1=Sam Phillips - Same Changes
TTITLE2=John Gorka - Talk About Love
TTITLE3=Keb' Mo' - Tell Everybody I Know
TTITLE4=Pretenders - Love Colours
TTITLE5=Counting Crows - Sullivan Street
TTITLE6=Kristin Hersh - Your Ghost
TTITLE7=The Band - Atlantic City
TTITLE8=BoDeans - Closer To Free
TTITLE9=Victoria Williams - You R Loved
TTITLE10=NRBQ - A Little Bit Of Bad
TTITLE11=Ted Hawkins - Strange Conversations
TTITLE12=Aimee Mann - Fifty Years After The Fair
TTITLE13=Pete Droge - Sunspot Stopwatch
TTITLE14=The Connells - Slackjawed
TTITLE15=Jackson Browne - Sky Blue And Black
EXTD=
EXTT0=
EXTT1=
EXTT2=
EXTT3=
EXTT4=
EXTT5=
EXTT6=
EXTT7=
EXTT8=
EXTT9=
EXTT10=
EXTT11=
EXTT12=
EXTT13=
EXTT14=
EXTT15=
PLAYORDER=
